<svg width="212" height="38" viewBox="0 0 212 38" fill="none" xmlns="http://www.w3.org/2000/svg">
<path fill-rule="evenodd" clip-rule="evenodd" d="M4.49998 16.9998C6.43295 16.9998 7.99995 18.567 7.99995 20.5V33.4999C7.99995 35.4329 6.43295 36.9999 4.49998 36.9999C2.56693 36.9999 0.999936 35.4329 0.999936 33.4999V20.5C0.999936 18.567 2.56693 16.9998 4.49998 16.9998Z" fill="#8FC63D"/>
<path fill-rule="evenodd" clip-rule="evenodd" d="M17.5 1.00001C19.4329 1.00001 20.9999 2.56698 20.9999 4.49996V33.5C20.9999 35.4329 19.4329 36.9999 17.5 36.9999C15.567 36.9999 13.9999 35.4329 13.9999 33.5V4.49996C13.9999 2.56698 15.567 1.00001 17.5 1.00001Z" fill="#8FC63D"/>
<path fill-rule="evenodd" clip-rule="evenodd" d="M4.49998 7.99992C6.43295 7.99992 7.99995 9.56689 7.99995 11.4999C7.99995 13.4329 6.43295 14.9998 4.49998 14.9998C2.56693 14.9998 0.999936 13.4329 0.999936 11.4999C0.999936 9.56689 2.56693 7.99992 4.49998 7.99992Z" fill="#8FC63D"/>
<path fill-rule="evenodd" clip-rule="evenodd" d="M31 7.9999C33.1477 7.9999 34.8888 9.56689 34.8888 11.4999V33.4999C34.8888 35.433 33.1477 36.9999 31 36.9999C28.8522 36.9999 27.1111 35.433 27.1111 33.4999V11.4999C27.1111 9.56689 28.8522 7.9999 31 7.9999Z" fill="#8FC63D"/>
</svg>
