<svg width="58" height="59" viewBox="0 0 58 59" fill="none" xmlns="http://www.w3.org/2000/svg">
<path fill-rule="evenodd" clip-rule="evenodd" d="M57.0332 18.3966C56.4994 18.3966 56.0666 17.9651 56.0666 17.4322V4.45194L45.2856 15.2319C46.1222 16.1406 46.8888 17.1137 47.5878 18.1371L47.6059 18.1185C47.7547 18.3344 47.8866 18.5637 48.0291 18.7844C48.0642 18.8401 48.0992 18.8942 48.1337 18.9498C50.694 22.9867 52.1969 27.7602 52.1969 32.8929C52.1969 47.3114 40.5122 58.9986 26.0984 58.9986C11.6846 58.9986 -0.000175953 47.3114 -0.000175953 32.8929C-0.000175953 18.476 11.6846 6.78903 26.0984 6.78903C31.563 6.78903 36.6308 8.47537 40.8229 11.3451L39.4425 12.726C35.622 10.1985 31.0404 8.71968 26.0984 8.71968C12.7148 8.71968 1.9342 19.5045 1.9342 32.8929C1.9342 33.2403 1.97153 33.579 1.98592 33.9247C6.04797 29.8628 14.0112 21.8989 14.0112 21.8989C14.3887 21.5213 15.0009 21.5213 15.3784 21.8989L25.6314 32.1509L54.8518 2.93114H41.5665C41.0326 2.93114 40.5999 2.49756 40.5999 1.96466C40.5999 1.43054 41.0326 0.998604 41.5665 0.998604H57.0332C57.567 0.998604 57.9998 1.43054 57.9998 1.96466V17.4322C57.9998 17.9651 57.567 18.3966 57.0332 18.3966Z" fill="#ADD136"/>
</svg>
